<mxfile host="app.diagrams.net" agent="Mozilla/5.0 (Windows NT 10.0; Win64; x64) AppleWebKit/537.36 (KHTML, like Gecko) Chrome/140.0.0.0 Safari/537.36" version="28.2.1">
  <diagram name="Page-1" id="WqZSFg9JcRa8wBwCX_C5">
    <mxGraphModel dx="2339" dy="803" grid="1" gridSize="10" guides="1" tooltips="1" connect="1" arrows="1" fold="1" page="1" pageScale="1" pageWidth="850" pageHeight="1100" math="0" shadow="0">
      <root>
        <mxCell id="0" />
        <mxCell id="1" parent="0" />
        <mxCell id="i14rvCoKaiRuIA88VnRj-20" value="" style="edgeStyle=orthogonalEdgeStyle;rounded=0;orthogonalLoop=1;jettySize=auto;html=1;exitX=0;exitY=0.25;exitDx=0;exitDy=0;" parent="1" source="i14rvCoKaiRuIA88VnRj-2" target="i14rvCoKaiRuIA88VnRj-16" edge="1">
          <mxGeometry relative="1" as="geometry" />
        </mxCell>
        <mxCell id="i14rvCoKaiRuIA88VnRj-36" style="edgeStyle=orthogonalEdgeStyle;rounded=0;orthogonalLoop=1;jettySize=auto;html=1;entryX=0.5;entryY=1;entryDx=0;entryDy=0;" parent="1" source="i14rvCoKaiRuIA88VnRj-2" target="i14rvCoKaiRuIA88VnRj-25" edge="1">
          <mxGeometry relative="1" as="geometry" />
        </mxCell>
        <mxCell id="i14rvCoKaiRuIA88VnRj-38" style="edgeStyle=orthogonalEdgeStyle;rounded=0;orthogonalLoop=1;jettySize=auto;html=1;" parent="1" source="i14rvCoKaiRuIA88VnRj-2" target="i14rvCoKaiRuIA88VnRj-43" edge="1">
          <mxGeometry relative="1" as="geometry">
            <mxPoint x="397.5" y="240" as="targetPoint" />
            <Array as="points">
              <mxPoint x="467.5" y="170" />
            </Array>
          </mxGeometry>
        </mxCell>
        <mxCell id="i14rvCoKaiRuIA88VnRj-40" style="edgeStyle=orthogonalEdgeStyle;rounded=0;orthogonalLoop=1;jettySize=auto;html=1;entryX=0.5;entryY=1;entryDx=0;entryDy=0;exitX=1;exitY=0.25;exitDx=0;exitDy=0;" parent="1" source="i14rvCoKaiRuIA88VnRj-2" target="i14rvCoKaiRuIA88VnRj-39" edge="1">
          <mxGeometry relative="1" as="geometry">
            <Array as="points">
              <mxPoint x="682.5" y="153" />
            </Array>
          </mxGeometry>
        </mxCell>
        <mxCell id="i14rvCoKaiRuIA88VnRj-41" style="edgeStyle=orthogonalEdgeStyle;rounded=0;orthogonalLoop=1;jettySize=auto;html=1;" parent="1" source="i14rvCoKaiRuIA88VnRj-2" target="i14rvCoKaiRuIA88VnRj-42" edge="1">
          <mxGeometry relative="1" as="geometry">
            <mxPoint x="677.5" y="160" as="targetPoint" />
          </mxGeometry>
        </mxCell>
        <mxCell id="i14rvCoKaiRuIA88VnRj-44" style="edgeStyle=orthogonalEdgeStyle;rounded=0;orthogonalLoop=1;jettySize=auto;html=1;entryX=0.5;entryY=0;entryDx=0;entryDy=0;" parent="1" target="i14rvCoKaiRuIA88VnRj-27" edge="1">
          <mxGeometry relative="1" as="geometry">
            <mxPoint x="557.5" y="150" as="sourcePoint" />
          </mxGeometry>
        </mxCell>
        <mxCell id="i14rvCoKaiRuIA88VnRj-133" style="edgeStyle=orthogonalEdgeStyle;rounded=0;orthogonalLoop=1;jettySize=auto;html=1;exitX=0.75;exitY=1;exitDx=0;exitDy=0;entryX=0.5;entryY=0;entryDx=0;entryDy=0;endArrow=ERoneToMany;endFill=0;" parent="1" source="i14rvCoKaiRuIA88VnRj-2" target="i14rvCoKaiRuIA88VnRj-90" edge="1">
          <mxGeometry relative="1" as="geometry">
            <Array as="points">
              <mxPoint x="602.5" y="175" />
              <mxPoint x="602.5" y="285" />
              <mxPoint x="567.5" y="285" />
            </Array>
          </mxGeometry>
        </mxCell>
        <mxCell id="i14rvCoKaiRuIA88VnRj-140" style="edgeStyle=orthogonalEdgeStyle;rounded=0;orthogonalLoop=1;jettySize=auto;html=1;exitX=0.25;exitY=0;exitDx=0;exitDy=0;endArrow=ERoneToMany;endFill=0;curved=1;entryX=1;entryY=0.75;entryDx=0;entryDy=0;" parent="1" source="i14rvCoKaiRuIA88VnRj-2" target="i14rvCoKaiRuIA88VnRj-78" edge="1">
          <mxGeometry relative="1" as="geometry">
            <mxPoint x="420" y="170" as="targetPoint" />
            <Array as="points">
              <mxPoint x="510" y="145" />
              <mxPoint x="510" y="63" />
              <mxPoint x="380" y="63" />
              <mxPoint x="380" y="130" />
              <mxPoint x="370" y="130" />
              <mxPoint x="370" y="208" />
            </Array>
          </mxGeometry>
        </mxCell>
        <object label="KhachHang" id="i14rvCoKaiRuIA88VnRj-2">
          <mxCell style="rounded=0;whiteSpace=wrap;html=1;" parent="1" vertex="1">
            <mxGeometry x="527.5" y="145" width="70" height="30" as="geometry" />
          </mxCell>
        </object>
        <mxCell id="i14rvCoKaiRuIA88VnRj-46" value="" style="edgeStyle=orthogonalEdgeStyle;rounded=0;orthogonalLoop=1;jettySize=auto;html=1;" parent="1" source="i14rvCoKaiRuIA88VnRj-3" target="i14rvCoKaiRuIA88VnRj-45" edge="1">
          <mxGeometry relative="1" as="geometry" />
        </mxCell>
        <mxCell id="i14rvCoKaiRuIA88VnRj-48" value="" style="edgeStyle=orthogonalEdgeStyle;rounded=0;orthogonalLoop=1;jettySize=auto;html=1;" parent="1" source="i14rvCoKaiRuIA88VnRj-3" target="i14rvCoKaiRuIA88VnRj-47" edge="1">
          <mxGeometry relative="1" as="geometry" />
        </mxCell>
        <mxCell id="i14rvCoKaiRuIA88VnRj-134" style="edgeStyle=orthogonalEdgeStyle;rounded=0;orthogonalLoop=1;jettySize=auto;html=1;exitX=1;exitY=0.5;exitDx=0;exitDy=0;endArrow=ERoneToMany;endFill=0;entryX=0;entryY=0.25;entryDx=0;entryDy=0;" parent="1" source="i14rvCoKaiRuIA88VnRj-3" target="i14rvCoKaiRuIA88VnRj-65" edge="1">
          <mxGeometry relative="1" as="geometry">
            <mxPoint x="-520" y="365" as="targetPoint" />
          </mxGeometry>
        </mxCell>
        <mxCell id="i14rvCoKaiRuIA88VnRj-3" value="DanhMuc" style="rounded=0;whiteSpace=wrap;html=1;" parent="1" vertex="1">
          <mxGeometry x="-657.5" y="230" width="50" height="20" as="geometry" />
        </mxCell>
        <mxCell id="i14rvCoKaiRuIA88VnRj-16" value="MaKH" style="ellipse;whiteSpace=wrap;html=1;rounded=0;" parent="1" vertex="1">
          <mxGeometry x="407.5" y="90.00000000000001" width="85" height="20" as="geometry" />
        </mxCell>
        <mxCell id="i14rvCoKaiRuIA88VnRj-25" value="TenKH" style="ellipse;whiteSpace=wrap;html=1;" parent="1" vertex="1">
          <mxGeometry x="502.5" y="50.000000000000014" width="120" height="30" as="geometry" />
        </mxCell>
        <mxCell id="i14rvCoKaiRuIA88VnRj-26" style="edgeStyle=orthogonalEdgeStyle;rounded=0;orthogonalLoop=1;jettySize=auto;html=1;exitX=0.5;exitY=1;exitDx=0;exitDy=0;" parent="1" source="i14rvCoKaiRuIA88VnRj-16" target="i14rvCoKaiRuIA88VnRj-16" edge="1">
          <mxGeometry relative="1" as="geometry" />
        </mxCell>
        <mxCell id="i14rvCoKaiRuIA88VnRj-27" value="email" style="ellipse;whiteSpace=wrap;html=1;" parent="1" vertex="1">
          <mxGeometry x="527.5" y="230" width="60" height="20" as="geometry" />
        </mxCell>
        <mxCell id="i14rvCoKaiRuIA88VnRj-39" value="SDT" style="ellipse;whiteSpace=wrap;html=1;" parent="1" vertex="1">
          <mxGeometry x="637.5" y="85.00000000000001" width="90" height="30" as="geometry" />
        </mxCell>
        <mxCell id="i14rvCoKaiRuIA88VnRj-42" value="MatKhau" style="ellipse;whiteSpace=wrap;html=1;" parent="1" vertex="1">
          <mxGeometry x="637.5" y="200" width="80" height="40" as="geometry" />
        </mxCell>
        <mxCell id="i14rvCoKaiRuIA88VnRj-43" value="DiaChi" style="ellipse;whiteSpace=wrap;html=1;" parent="1" vertex="1">
          <mxGeometry x="432.5" y="225" width="70" height="30" as="geometry" />
        </mxCell>
        <mxCell id="i14rvCoKaiRuIA88VnRj-45" value="MaDM" style="ellipse;whiteSpace=wrap;html=1;rounded=0;" parent="1" vertex="1">
          <mxGeometry x="-670" y="175" width="75" height="20" as="geometry" />
        </mxCell>
        <mxCell id="i14rvCoKaiRuIA88VnRj-47" value="TenDM" style="ellipse;whiteSpace=wrap;html=1;rounded=0;" parent="1" vertex="1">
          <mxGeometry x="-667.5" y="270" width="72.5" height="30" as="geometry" />
        </mxCell>
        <mxCell id="i14rvCoKaiRuIA88VnRj-67" value="" style="edgeStyle=orthogonalEdgeStyle;rounded=0;orthogonalLoop=1;jettySize=auto;html=1;" parent="1" source="i14rvCoKaiRuIA88VnRj-65" target="i14rvCoKaiRuIA88VnRj-66" edge="1">
          <mxGeometry relative="1" as="geometry" />
        </mxCell>
        <mxCell id="i14rvCoKaiRuIA88VnRj-68" style="edgeStyle=orthogonalEdgeStyle;rounded=0;orthogonalLoop=1;jettySize=auto;html=1;exitX=0.25;exitY=0;exitDx=0;exitDy=0;" parent="1" source="i14rvCoKaiRuIA88VnRj-65" target="i14rvCoKaiRuIA88VnRj-73" edge="1">
          <mxGeometry relative="1" as="geometry">
            <mxPoint x="-432.5" y="225" as="targetPoint" />
          </mxGeometry>
        </mxCell>
        <mxCell id="i14rvCoKaiRuIA88VnRj-69" style="edgeStyle=orthogonalEdgeStyle;rounded=0;orthogonalLoop=1;jettySize=auto;html=1;exitX=0.75;exitY=0;exitDx=0;exitDy=0;" parent="1" source="i14rvCoKaiRuIA88VnRj-65" target="i14rvCoKaiRuIA88VnRj-74" edge="1">
          <mxGeometry relative="1" as="geometry">
            <mxPoint x="-212.5" y="225" as="targetPoint" />
          </mxGeometry>
        </mxCell>
        <mxCell id="i14rvCoKaiRuIA88VnRj-70" style="edgeStyle=orthogonalEdgeStyle;rounded=0;orthogonalLoop=1;jettySize=auto;html=1;exitX=0.25;exitY=1;exitDx=0;exitDy=0;" parent="1" source="i14rvCoKaiRuIA88VnRj-65" target="i14rvCoKaiRuIA88VnRj-76" edge="1">
          <mxGeometry relative="1" as="geometry">
            <mxPoint x="-442.5" y="365" as="targetPoint" />
          </mxGeometry>
        </mxCell>
        <mxCell id="i14rvCoKaiRuIA88VnRj-71" style="edgeStyle=orthogonalEdgeStyle;rounded=0;orthogonalLoop=1;jettySize=auto;html=1;exitX=0.75;exitY=1;exitDx=0;exitDy=0;" parent="1" source="i14rvCoKaiRuIA88VnRj-65" target="i14rvCoKaiRuIA88VnRj-77" edge="1">
          <mxGeometry relative="1" as="geometry">
            <mxPoint x="-192.5" y="365" as="targetPoint" />
          </mxGeometry>
        </mxCell>
        <mxCell id="i14rvCoKaiRuIA88VnRj-72" style="edgeStyle=orthogonalEdgeStyle;rounded=0;orthogonalLoop=1;jettySize=auto;html=1;exitX=0.5;exitY=1;exitDx=0;exitDy=0;" parent="1" source="i14rvCoKaiRuIA88VnRj-65" target="i14rvCoKaiRuIA88VnRj-75" edge="1">
          <mxGeometry relative="1" as="geometry">
            <mxPoint x="-322.1666666666665" y="385" as="targetPoint" />
          </mxGeometry>
        </mxCell>
        <mxCell id="i14rvCoKaiRuIA88VnRj-65" value="SanPham" style="rounded=0;whiteSpace=wrap;html=1;" parent="1" vertex="1">
          <mxGeometry x="-382.5" y="285" width="120" height="40" as="geometry" />
        </mxCell>
        <mxCell id="i14rvCoKaiRuIA88VnRj-66" value="MaSP" style="ellipse;whiteSpace=wrap;html=1;rounded=0;" parent="1" vertex="1">
          <mxGeometry x="-362.5" y="185" width="80" height="40" as="geometry" />
        </mxCell>
        <mxCell id="i14rvCoKaiRuIA88VnRj-73" value="TenSP" style="ellipse;whiteSpace=wrap;html=1;" parent="1" vertex="1">
          <mxGeometry x="-492.5" y="185" width="100" height="40" as="geometry" />
        </mxCell>
        <mxCell id="i14rvCoKaiRuIA88VnRj-74" value="MoTa" style="ellipse;whiteSpace=wrap;html=1;" parent="1" vertex="1">
          <mxGeometry x="-272.5" y="185" width="110" height="40" as="geometry" />
        </mxCell>
        <mxCell id="i14rvCoKaiRuIA88VnRj-75" value="Gia" style="ellipse;whiteSpace=wrap;html=1;" parent="1" vertex="1">
          <mxGeometry x="-367.33000000000004" y="405" width="89.67" height="20" as="geometry" />
        </mxCell>
        <mxCell id="i14rvCoKaiRuIA88VnRj-76" value="Anh" style="ellipse;whiteSpace=wrap;html=1;" parent="1" vertex="1">
          <mxGeometry x="-452.5" y="385" width="70" height="20" as="geometry" />
        </mxCell>
        <mxCell id="i14rvCoKaiRuIA88VnRj-77" value="MaDM" style="ellipse;whiteSpace=wrap;html=1;" parent="1" vertex="1">
          <mxGeometry x="-252.5" y="375" width="80" height="30" as="geometry" />
        </mxCell>
        <mxCell id="i14rvCoKaiRuIA88VnRj-80" value="" style="edgeStyle=orthogonalEdgeStyle;rounded=0;orthogonalLoop=1;jettySize=auto;html=1;" parent="1" source="i14rvCoKaiRuIA88VnRj-78" target="i14rvCoKaiRuIA88VnRj-79" edge="1">
          <mxGeometry relative="1" as="geometry" />
        </mxCell>
        <mxCell id="i14rvCoKaiRuIA88VnRj-82" value="" style="edgeStyle=orthogonalEdgeStyle;rounded=0;orthogonalLoop=1;jettySize=auto;html=1;" parent="1" source="i14rvCoKaiRuIA88VnRj-78" target="i14rvCoKaiRuIA88VnRj-81" edge="1">
          <mxGeometry relative="1" as="geometry" />
        </mxCell>
        <mxCell id="i14rvCoKaiRuIA88VnRj-142" style="edgeStyle=orthogonalEdgeStyle;rounded=0;orthogonalLoop=1;jettySize=auto;html=1;exitX=0;exitY=0.5;exitDx=0;exitDy=0;entryX=0.75;entryY=1;entryDx=0;entryDy=0;endArrow=ERoneToMany;endFill=0;" parent="1" source="i14rvCoKaiRuIA88VnRj-78" target="i14rvCoKaiRuIA88VnRj-83" edge="1">
          <mxGeometry relative="1" as="geometry" />
        </mxCell>
        <mxCell id="i14rvCoKaiRuIA88VnRj-78" value="GioHang" style="rounded=0;whiteSpace=wrap;html=1;" parent="1" vertex="1">
          <mxGeometry x="230" y="185.03999999999996" width="80" height="30" as="geometry" />
        </mxCell>
        <mxCell id="i14rvCoKaiRuIA88VnRj-79" value="MaGH" style="ellipse;whiteSpace=wrap;html=1;rounded=0;" parent="1" vertex="1">
          <mxGeometry x="235" y="105.00000000000001" width="70" height="25" as="geometry" />
        </mxCell>
        <mxCell id="i14rvCoKaiRuIA88VnRj-81" value="MaKH" style="ellipse;whiteSpace=wrap;html=1;rounded=0;" parent="1" vertex="1">
          <mxGeometry x="235" y="270" width="70" height="35" as="geometry" />
        </mxCell>
        <mxCell id="i14rvCoKaiRuIA88VnRj-85" value="" style="edgeStyle=orthogonalEdgeStyle;rounded=0;orthogonalLoop=1;jettySize=auto;html=1;" parent="1" source="i14rvCoKaiRuIA88VnRj-83" target="i14rvCoKaiRuIA88VnRj-84" edge="1">
          <mxGeometry relative="1" as="geometry" />
        </mxCell>
        <mxCell id="i14rvCoKaiRuIA88VnRj-87" value="" style="edgeStyle=orthogonalEdgeStyle;rounded=0;orthogonalLoop=1;jettySize=auto;html=1;" parent="1" source="i14rvCoKaiRuIA88VnRj-83" target="i14rvCoKaiRuIA88VnRj-86" edge="1">
          <mxGeometry relative="1" as="geometry" />
        </mxCell>
        <mxCell id="i14rvCoKaiRuIA88VnRj-89" value="" style="edgeStyle=orthogonalEdgeStyle;rounded=0;orthogonalLoop=1;jettySize=auto;html=1;" parent="1" source="i14rvCoKaiRuIA88VnRj-83" target="i14rvCoKaiRuIA88VnRj-88" edge="1">
          <mxGeometry relative="1" as="geometry" />
        </mxCell>
        <mxCell id="i14rvCoKaiRuIA88VnRj-83" value="ChiTietGioHang" style="rounded=0;whiteSpace=wrap;html=1;" parent="1" vertex="1">
          <mxGeometry x="-50" y="150" width="100" height="40" as="geometry" />
        </mxCell>
        <mxCell id="i14rvCoKaiRuIA88VnRj-84" value="MaGH" style="ellipse;whiteSpace=wrap;html=1;rounded=0;" parent="1" vertex="1">
          <mxGeometry x="-40" y="85" width="80" height="40" as="geometry" />
        </mxCell>
        <mxCell id="i14rvCoKaiRuIA88VnRj-86" value="MaSP" style="ellipse;whiteSpace=wrap;html=1;rounded=0;" parent="1" vertex="1">
          <mxGeometry x="-40" y="220" width="80" height="40" as="geometry" />
        </mxCell>
        <mxCell id="i14rvCoKaiRuIA88VnRj-88" value="SoLuong" style="ellipse;whiteSpace=wrap;html=1;rounded=0;" parent="1" vertex="1">
          <mxGeometry x="80" y="155" width="70" height="30" as="geometry" />
        </mxCell>
        <mxCell id="i14rvCoKaiRuIA88VnRj-95" style="edgeStyle=orthogonalEdgeStyle;rounded=0;orthogonalLoop=1;jettySize=auto;html=1;exitX=0.75;exitY=0;exitDx=0;exitDy=0;entryX=0.5;entryY=1;entryDx=0;entryDy=0;" parent="1" source="i14rvCoKaiRuIA88VnRj-90" target="i14rvCoKaiRuIA88VnRj-102" edge="1">
          <mxGeometry relative="1" as="geometry">
            <mxPoint x="612.5" y="335.03999999999996" as="targetPoint" />
          </mxGeometry>
        </mxCell>
        <mxCell id="i14rvCoKaiRuIA88VnRj-96" style="edgeStyle=orthogonalEdgeStyle;rounded=0;orthogonalLoop=1;jettySize=auto;html=1;exitX=0.25;exitY=0;exitDx=0;exitDy=0;entryX=0.5;entryY=1;entryDx=0;entryDy=0;" parent="1" source="i14rvCoKaiRuIA88VnRj-90" target="i14rvCoKaiRuIA88VnRj-101" edge="1">
          <mxGeometry relative="1" as="geometry">
            <mxPoint x="512.5" y="334.99555545786416" as="targetPoint" />
            <Array as="points">
              <mxPoint x="549.5" y="371" />
              <mxPoint x="512.5" y="371" />
            </Array>
          </mxGeometry>
        </mxCell>
        <mxCell id="i14rvCoKaiRuIA88VnRj-97" style="edgeStyle=orthogonalEdgeStyle;rounded=0;orthogonalLoop=1;jettySize=auto;html=1;exitX=0.75;exitY=1;exitDx=0;exitDy=0;" parent="1" source="i14rvCoKaiRuIA88VnRj-90" target="i14rvCoKaiRuIA88VnRj-106" edge="1">
          <mxGeometry relative="1" as="geometry">
            <mxPoint x="632.5" y="505.03999999999996" as="targetPoint" />
          </mxGeometry>
        </mxCell>
        <mxCell id="i14rvCoKaiRuIA88VnRj-98" style="edgeStyle=orthogonalEdgeStyle;rounded=0;orthogonalLoop=1;jettySize=auto;html=1;exitX=0.25;exitY=1;exitDx=0;exitDy=0;" parent="1" source="i14rvCoKaiRuIA88VnRj-90" target="i14rvCoKaiRuIA88VnRj-105" edge="1">
          <mxGeometry relative="1" as="geometry">
            <mxPoint x="550.3333333333335" y="475.03999999999996" as="targetPoint" />
          </mxGeometry>
        </mxCell>
        <mxCell id="i14rvCoKaiRuIA88VnRj-99" style="edgeStyle=orthogonalEdgeStyle;rounded=0;orthogonalLoop=1;jettySize=auto;html=1;exitX=0;exitY=0.5;exitDx=0;exitDy=0;" parent="1" source="i14rvCoKaiRuIA88VnRj-90" target="i14rvCoKaiRuIA88VnRj-103" edge="1">
          <mxGeometry relative="1" as="geometry">
            <mxPoint x="482.5" y="410.37333333333345" as="targetPoint" />
          </mxGeometry>
        </mxCell>
        <mxCell id="i14rvCoKaiRuIA88VnRj-100" style="edgeStyle=orthogonalEdgeStyle;rounded=0;orthogonalLoop=1;jettySize=auto;html=1;exitX=1;exitY=0.5;exitDx=0;exitDy=0;" parent="1" source="i14rvCoKaiRuIA88VnRj-90" target="i14rvCoKaiRuIA88VnRj-104" edge="1">
          <mxGeometry relative="1" as="geometry">
            <mxPoint x="662.5" y="410.37333333333345" as="targetPoint" />
          </mxGeometry>
        </mxCell>
        <mxCell id="i14rvCoKaiRuIA88VnRj-90" value="DonHang" style="rounded=0;whiteSpace=wrap;html=1;" parent="1" vertex="1">
          <mxGeometry x="532.5" y="395.03999999999996" width="70" height="30" as="geometry" />
        </mxCell>
        <mxCell id="i14rvCoKaiRuIA88VnRj-101" value="MaDH" style="ellipse;whiteSpace=wrap;html=1;" parent="1" vertex="1">
          <mxGeometry x="480" y="290" width="65" height="30" as="geometry" />
        </mxCell>
        <mxCell id="i14rvCoKaiRuIA88VnRj-102" value="NgayDat" style="ellipse;whiteSpace=wrap;html=1;" parent="1" vertex="1">
          <mxGeometry x="587.5" y="290" width="60" height="30" as="geometry" />
        </mxCell>
        <mxCell id="i14rvCoKaiRuIA88VnRj-103" value="TrangThai" style="ellipse;whiteSpace=wrap;html=1;" parent="1" vertex="1">
          <mxGeometry x="427.5" y="395.03999999999996" width="60" height="30" as="geometry" />
        </mxCell>
        <mxCell id="i14rvCoKaiRuIA88VnRj-104" value="PhuongThucThanhToan" style="ellipse;whiteSpace=wrap;html=1;" parent="1" vertex="1">
          <mxGeometry x="672.5" y="390.03999999999996" width="140" height="40" as="geometry" />
        </mxCell>
        <mxCell id="i14rvCoKaiRuIA88VnRj-105" value="TongTien" style="ellipse;whiteSpace=wrap;html=1;" parent="1" vertex="1">
          <mxGeometry x="475.3299999999999" y="495.03999999999996" width="72.17" height="20" as="geometry" />
        </mxCell>
        <mxCell id="i14rvCoKaiRuIA88VnRj-106" value="MaKH" style="ellipse;whiteSpace=wrap;html=1;" parent="1" vertex="1">
          <mxGeometry x="612.5" y="495.03999999999996" width="70" height="30" as="geometry" />
        </mxCell>
        <mxCell id="i14rvCoKaiRuIA88VnRj-108" style="edgeStyle=orthogonalEdgeStyle;rounded=0;orthogonalLoop=1;jettySize=auto;html=1;exitX=0.25;exitY=0;exitDx=0;exitDy=0;" parent="1" source="i14rvCoKaiRuIA88VnRj-107" target="i14rvCoKaiRuIA88VnRj-114" edge="1">
          <mxGeometry relative="1" as="geometry">
            <mxPoint x="-50" y="320" as="targetPoint" />
          </mxGeometry>
        </mxCell>
        <mxCell id="i14rvCoKaiRuIA88VnRj-109" style="edgeStyle=orthogonalEdgeStyle;rounded=0;orthogonalLoop=1;jettySize=auto;html=1;exitX=0.75;exitY=0;exitDx=0;exitDy=0;" parent="1" source="i14rvCoKaiRuIA88VnRj-107" target="i14rvCoKaiRuIA88VnRj-113" edge="1">
          <mxGeometry relative="1" as="geometry">
            <mxPoint x="80" y="330" as="targetPoint" />
          </mxGeometry>
        </mxCell>
        <mxCell id="i14rvCoKaiRuIA88VnRj-110" style="edgeStyle=orthogonalEdgeStyle;rounded=0;orthogonalLoop=1;jettySize=auto;html=1;exitX=0.75;exitY=1;exitDx=0;exitDy=0;" parent="1" source="i14rvCoKaiRuIA88VnRj-107" target="i14rvCoKaiRuIA88VnRj-116" edge="1">
          <mxGeometry relative="1" as="geometry">
            <mxPoint x="100" y="395.3333333333335" as="targetPoint" />
          </mxGeometry>
        </mxCell>
        <mxCell id="i14rvCoKaiRuIA88VnRj-111" style="edgeStyle=orthogonalEdgeStyle;rounded=0;orthogonalLoop=1;jettySize=auto;html=1;exitX=0.25;exitY=1;exitDx=0;exitDy=0;" parent="1" source="i14rvCoKaiRuIA88VnRj-107" target="i14rvCoKaiRuIA88VnRj-115" edge="1">
          <mxGeometry relative="1" as="geometry">
            <mxPoint x="-90" y="395.3333333333335" as="targetPoint" />
          </mxGeometry>
        </mxCell>
        <mxCell id="i14rvCoKaiRuIA88VnRj-107" value="ChiTietDonHang" style="rounded=0;whiteSpace=wrap;html=1;" parent="1" vertex="1">
          <mxGeometry x="-40" y="380" width="100" height="30" as="geometry" />
        </mxCell>
        <mxCell id="i14rvCoKaiRuIA88VnRj-113" value="MaDH" style="ellipse;whiteSpace=wrap;html=1;" parent="1" vertex="1">
          <mxGeometry x="20" y="290" width="100" height="40" as="geometry" />
        </mxCell>
        <mxCell id="i14rvCoKaiRuIA88VnRj-114" value="MaSP" style="ellipse;whiteSpace=wrap;html=1;" parent="1" vertex="1">
          <mxGeometry x="-110" y="285" width="100" height="50" as="geometry" />
        </mxCell>
        <mxCell id="i14rvCoKaiRuIA88VnRj-115" value="SoLuong" style="ellipse;whiteSpace=wrap;html=1;" parent="1" vertex="1">
          <mxGeometry x="-110" y="470" width="70" height="40" as="geometry" />
        </mxCell>
        <mxCell id="i14rvCoKaiRuIA88VnRj-116" value="DonGIa" style="ellipse;whiteSpace=wrap;html=1;" parent="1" vertex="1">
          <mxGeometry x="57.5" y="460" width="70" height="30" as="geometry" />
        </mxCell>
        <mxCell id="i14rvCoKaiRuIA88VnRj-118" style="edgeStyle=orthogonalEdgeStyle;rounded=0;orthogonalLoop=1;jettySize=auto;html=1;exitX=0.75;exitY=0;exitDx=0;exitDy=0;" parent="1" source="i14rvCoKaiRuIA88VnRj-117" target="i14rvCoKaiRuIA88VnRj-119" edge="1">
          <mxGeometry relative="1" as="geometry">
            <mxPoint x="290.3333333333335" y="515" as="targetPoint" />
          </mxGeometry>
        </mxCell>
        <mxCell id="i14rvCoKaiRuIA88VnRj-120" style="edgeStyle=orthogonalEdgeStyle;rounded=0;orthogonalLoop=1;jettySize=auto;html=1;exitX=0.25;exitY=0;exitDx=0;exitDy=0;" parent="1" source="i14rvCoKaiRuIA88VnRj-117" target="i14rvCoKaiRuIA88VnRj-124" edge="1">
          <mxGeometry relative="1" as="geometry">
            <mxPoint x="210" y="485" as="targetPoint" />
          </mxGeometry>
        </mxCell>
        <mxCell id="i14rvCoKaiRuIA88VnRj-121" style="edgeStyle=orthogonalEdgeStyle;rounded=0;orthogonalLoop=1;jettySize=auto;html=1;exitX=1;exitY=0.5;exitDx=0;exitDy=0;" parent="1" source="i14rvCoKaiRuIA88VnRj-117" target="i14rvCoKaiRuIA88VnRj-126" edge="1">
          <mxGeometry relative="1" as="geometry">
            <mxPoint x="370" y="555.3333333333335" as="targetPoint" />
          </mxGeometry>
        </mxCell>
        <mxCell id="i14rvCoKaiRuIA88VnRj-122" style="edgeStyle=orthogonalEdgeStyle;rounded=0;orthogonalLoop=1;jettySize=auto;html=1;exitX=0;exitY=0.5;exitDx=0;exitDy=0;" parent="1" source="i14rvCoKaiRuIA88VnRj-117" target="i14rvCoKaiRuIA88VnRj-125" edge="1">
          <mxGeometry relative="1" as="geometry">
            <mxPoint x="180" y="555.3333333333335" as="targetPoint" />
          </mxGeometry>
        </mxCell>
        <mxCell id="i14rvCoKaiRuIA88VnRj-123" style="edgeStyle=orthogonalEdgeStyle;rounded=0;orthogonalLoop=1;jettySize=auto;html=1;exitX=0.5;exitY=1;exitDx=0;exitDy=0;entryX=0.5;entryY=0;entryDx=0;entryDy=0;" parent="1" source="i14rvCoKaiRuIA88VnRj-117" target="i14rvCoKaiRuIA88VnRj-127" edge="1">
          <mxGeometry relative="1" as="geometry">
            <mxPoint x="270.3333333333335" y="625" as="targetPoint" />
          </mxGeometry>
        </mxCell>
        <mxCell id="i14rvCoKaiRuIA88VnRj-117" value="NhanVien" style="rounded=0;whiteSpace=wrap;html=1;" parent="1" vertex="1">
          <mxGeometry x="230" y="545" width="80" height="20" as="geometry" />
        </mxCell>
        <mxCell id="i14rvCoKaiRuIA88VnRj-119" value="VaiTro" style="ellipse;whiteSpace=wrap;html=1;" parent="1" vertex="1">
          <mxGeometry x="312.1700000000001" y="460" width="80.33" height="30" as="geometry" />
        </mxCell>
        <mxCell id="i14rvCoKaiRuIA88VnRj-124" value="SDT" style="ellipse;whiteSpace=wrap;html=1;" parent="1" vertex="1">
          <mxGeometry x="150" y="465" width="80" height="20" as="geometry" />
        </mxCell>
        <mxCell id="i14rvCoKaiRuIA88VnRj-125" value="Email" style="ellipse;whiteSpace=wrap;html=1;" parent="1" vertex="1">
          <mxGeometry x="110" y="545" width="60" height="20" as="geometry" />
        </mxCell>
        <mxCell id="i14rvCoKaiRuIA88VnRj-126" value="TenNV" style="ellipse;whiteSpace=wrap;html=1;" parent="1" vertex="1">
          <mxGeometry x="380" y="535" width="90" height="40" as="geometry" />
        </mxCell>
        <mxCell id="i14rvCoKaiRuIA88VnRj-127" value="MaNV" style="ellipse;whiteSpace=wrap;html=1;" parent="1" vertex="1">
          <mxGeometry x="230" y="625" width="80" height="30" as="geometry" />
        </mxCell>
        <mxCell id="i14rvCoKaiRuIA88VnRj-137" value="" style="edgeStyle=entityRelationEdgeStyle;fontSize=12;html=1;endArrow=ERmany;startArrow=ERmany;rounded=0;entryX=0;entryY=0.5;entryDx=0;entryDy=0;exitX=1;exitY=0.25;exitDx=0;exitDy=0;" parent="1" source="i14rvCoKaiRuIA88VnRj-65" target="i14rvCoKaiRuIA88VnRj-83" edge="1">
          <mxGeometry width="100" height="100" relative="1" as="geometry">
            <mxPoint x="-250" y="505" as="sourcePoint" />
            <mxPoint x="-20" y="505" as="targetPoint" />
            <Array as="points">
              <mxPoint x="-140" y="485" />
              <mxPoint x="-130" y="475" />
              <mxPoint x="-250" y="345" />
            </Array>
          </mxGeometry>
        </mxCell>
        <mxCell id="i14rvCoKaiRuIA88VnRj-138" value="" style="edgeStyle=entityRelationEdgeStyle;fontSize=12;html=1;endArrow=ERmany;startArrow=ERmany;rounded=0;entryX=0;entryY=0.5;entryDx=0;entryDy=0;exitX=1;exitY=0.75;exitDx=0;exitDy=0;" parent="1" source="i14rvCoKaiRuIA88VnRj-65" target="i14rvCoKaiRuIA88VnRj-107" edge="1">
          <mxGeometry width="100" height="100" relative="1" as="geometry">
            <mxPoint x="-210" y="355" as="sourcePoint" />
            <mxPoint x="-110" y="255" as="targetPoint" />
          </mxGeometry>
        </mxCell>
        <mxCell id="i14rvCoKaiRuIA88VnRj-145" value="" style="edgeStyle=orthogonalEdgeStyle;fontSize=12;html=1;endArrow=ERoneToMany;rounded=0;curved=1;entryX=1;entryY=0.25;entryDx=0;entryDy=0;exitX=0;exitY=0.25;exitDx=0;exitDy=0;" parent="1" source="i14rvCoKaiRuIA88VnRj-90" target="i14rvCoKaiRuIA88VnRj-107" edge="1">
          <mxGeometry width="100" height="100" relative="1" as="geometry">
            <mxPoint x="370" y="350" as="sourcePoint" />
            <mxPoint x="130" y="390" as="targetPoint" />
            <Array as="points">
              <mxPoint x="532" y="370" />
              <mxPoint x="170" y="370" />
              <mxPoint x="170" y="390" />
              <mxPoint x="60" y="390" />
            </Array>
          </mxGeometry>
        </mxCell>
      </root>
    </mxGraphModel>
  </diagram>
</mxfile>
